<svg width="131" height="130" viewBox="0 0 131 130" fill="none" xmlns="http://www.w3.org/2000/svg">
<path d="M128.794 32.8195L128.775 32.837L128.756 32.8556L100.68 60.9317C98.51 63.1017 98.51 66.8983 100.68 69.0683L128.756 97.1444C130.145 98.5333 130.145 101.064 128.756 102.453L103.25 127.958C101.861 129.347 99.3311 129.347 97.9421 127.958L69.8661 99.8823C67.6961 97.7123 63.8994 97.7123 61.7294 99.8823L33.6533 127.958C32.2644 129.347 29.7341 129.347 28.3451 127.958L2.83944 102.453C1.45049 101.064 1.45049 98.5333 2.83944 97.1444L30.9155 69.0683C33.0854 66.8983 33.0854 63.1017 30.9155 60.9317L2.83944 32.8556C1.45049 31.4667 1.45049 28.9363 2.83944 27.5474L28.3451 2.04171C29.7341 0.652764 32.2644 0.652764 33.6533 2.04171L61.7294 30.1178C63.8994 32.2877 67.6961 32.2877 69.8661 30.1178L97.9421 2.04171C99.3311 0.652764 101.861 0.652764 103.25 2.04171L128.756 27.5474C130.365 29.1559 130.308 31.4569 128.794 32.8195Z" stroke="url(#paint0_linear_64_6614)" stroke-width="2"/>
<defs>
<linearGradient id="paint0_linear_64_6614" x1="0.797729" y1="65" x2="130.946" y2="65" gradientUnits="userSpaceOnUse">
<stop stop-color="#F7941D"/>
<stop offset="1" stop-color="#27AAE1"/>
</linearGradient>
</defs>
</svg>
